<svg width="111" height="32" viewBox="0 0 111 32" fill="none" xmlns="http://www.w3.org/2000/svg">
<mask id="mask0_13_114" style="mask-type:luminance" maskUnits="userSpaceOnUse" x="0" y="0" width="111" height="32">
<path d="M110.703 0H0V32H110.703V0Z" fill="white"/>
</mask>
<g mask="url(#mask0_13_114)">
<path d="M34.8447 7.24851C34.6492 7.12844 34.4265 7.06145 34.1981 7.05398C33.9696 7.04652 33.7432 7.09884 33.5405 7.2059C33.4862 7.23455 33.434 7.26703 33.3842 7.3031L33.3763 7.31109C33.2627 7.39444 33.1563 7.48754 33.0584 7.58938C32.2783 8.37629 31.0213 9.6785 30.2451 10.4681C30.1899 10.5256 30.1311 10.5794 30.0691 10.6292L30.0481 10.6452C29.9902 10.6061 29.9361 10.5615 29.8866 10.512C29.7106 10.3349 29.5372 10.1565 29.3612 9.97942C29.2193 9.83429 29.0788 9.68916 28.9356 9.54535L28.4628 9.06601C27.9729 8.56936 27.483 8.07138 26.9878 7.58006L26.9695 7.56541C26.8451 7.40629 26.6868 7.27785 26.5064 7.18975C26.3259 7.10165 26.1282 7.05618 25.9279 7.05678H25.9135C25.706 7.06004 25.502 7.11151 25.3172 7.20724C25.2629 7.23588 25.2107 7.26836 25.1609 7.30443L25.1517 7.31242C25.0388 7.39568 24.9329 7.48832 24.8352 7.58938C24.4753 7.95154 24.0143 8.42423 23.5467 8.9049L21.9706 10.5027C21.9216 10.5532 21.8694 10.6003 21.8143 10.6438C21.7593 10.6047 21.7082 10.5601 21.662 10.5107C21.486 10.3336 21.3126 10.1552 21.1366 9.97809L20.7111 9.54402L20.2382 9.06468C19.7483 8.56803 19.2584 8.07005 18.7619 7.57872C18.5357 7.33444 18.2432 7.16349 17.9214 7.0874C17.8964 7.0874 17.8701 7.0874 17.8452 7.07808C17.7991 7.06977 17.7526 7.06399 17.706 7.06077C17.7021 7.0601 17.6981 7.0601 17.6941 7.06077H17.6705C17.6547 7.06077 17.639 7.06077 17.6219 7.06077C17.6009 7.0594 17.5799 7.0594 17.5589 7.06077H17.5497H17.5168C17.4806 7.06448 17.4447 7.07026 17.4091 7.07808C17.3842 7.07808 17.3605 7.09406 17.3356 7.10072C17.0922 7.17797 16.8715 7.31522 16.6933 7.50017C16.449 7.74383 16.168 8.03277 15.8724 8.32969C15.2726 8.94573 14.6663 9.56 14.0534 10.1725L13.6291 10.6012C13.6129 10.6164 13.5958 10.6307 13.5779 10.6438L13.5582 10.6292C13.5223 10.604 13.4885 10.576 13.4571 10.5453C13.3993 10.4921 13.3428 10.4335 13.2876 10.3762L12.3853 9.4588C11.7637 8.82501 11.1407 8.19343 10.5163 7.56408C10.1604 7.20724 9.78215 7.0408 9.39732 7.05278C9.37589 7.05142 9.35439 7.05142 9.33296 7.05278H9.32508H9.29225C9.25605 7.05649 9.2201 7.06227 9.18455 7.07009C9.15959 7.07009 9.13595 7.08607 9.111 7.09273C8.86735 7.17024 8.64631 7.30744 8.46742 7.49218C8.22444 7.73584 7.94206 8.02478 7.64785 8.3217C7.04281 8.93419 6.43733 9.54668 5.83141 10.1592L4.97637 11.026C4.89721 11.1038 4.82389 11.1874 4.75703 11.2763L4.43656 11.6025C4.18768 11.8361 4.03553 12.1567 4.01087 12.4996C3.98621 12.8425 4.09087 13.1821 4.30369 13.4497C4.51652 13.7174 4.82165 13.8932 5.15741 13.9416C5.49317 13.9899 5.83452 13.9073 6.11248 13.7103L6.12036 13.7023C6.23398 13.619 6.34032 13.5259 6.4382 13.424C7.22362 12.6491 8.47793 11.3482 9.25547 10.5586C9.3111 10.5012 9.36986 10.447 9.43147 10.3962L9.45642 10.3855C9.51465 10.4242 9.56879 10.4688 9.61797 10.5187C9.79397 10.6944 9.96734 10.8729 10.1433 11.0513C10.2852 11.1964 10.4257 11.3415 10.5689 11.4867L11.0417 11.966C11.5316 12.4627 12.0215 12.9593 12.5167 13.4506L12.5351 13.4666C12.6601 13.6249 12.8189 13.7525 12.9995 13.8396C13.1801 13.9268 13.3779 13.9714 13.5779 13.9699H13.5924C13.7985 13.9672 14.0012 13.9161 14.1847 13.8208C14.239 13.7922 14.2912 13.7597 14.341 13.7236L14.3489 13.7156C14.4625 13.6323 14.5689 13.5392 14.6667 13.4373C15.0253 13.0752 15.4863 12.6025 15.9539 12.1231L17.53 10.5253C17.579 10.4753 17.6312 10.4286 17.6863 10.3855C17.741 10.425 17.792 10.4696 17.8386 10.5187C18.0146 10.6944 18.188 10.8729 18.364 11.0513C18.5058 11.1964 18.6464 11.3415 18.7895 11.4867L19.2624 11.966C19.7523 12.4627 20.2422 12.9593 20.7373 13.4506C20.9642 13.6951 21.257 13.8664 21.5792 13.9433C21.6042 13.9433 21.6304 13.9433 21.6554 13.9526C21.7015 13.9606 21.7479 13.966 21.7946 13.9686H21.8025H21.8275C21.8432 13.9686 21.859 13.9686 21.8747 13.9686H21.9391H21.9483H21.9811C22.0173 13.9647 22.0532 13.9589 22.0888 13.9513C22.1138 13.9513 22.1374 13.9353 22.1624 13.9287C22.4054 13.8506 22.6259 13.7135 22.8046 13.5292C23.0476 13.2855 23.33 12.9966 23.6229 12.701C24.2297 12.0885 24.836 11.4756 25.442 10.8622L25.8662 10.4321C25.8846 10.4162 25.903 10.4002 25.9161 10.3909C25.9234 10.3948 25.9304 10.3993 25.9371 10.4042C25.9727 10.4292 26.0065 10.4568 26.0383 10.4867C26.096 10.5413 26.1525 10.5986 26.2077 10.6558L27.11 11.5746C27.7317 12.2075 28.3547 12.8386 28.979 13.468C29.3336 13.8248 29.7132 13.9926 30.098 13.9806H30.1611H30.1702H30.2031C30.2393 13.9769 30.2752 13.9711 30.3108 13.9633C30.3357 13.9633 30.3594 13.9473 30.3843 13.9406C30.6275 13.8629 30.848 13.7257 31.0266 13.5412C31.2709 13.2975 31.552 13.0086 31.8448 12.713C32.4516 12.1005 33.058 11.4876 33.6639 10.8742L34.5203 9.98608C34.5991 9.90746 34.6723 9.82337 34.7396 9.73443L35.0601 9.40954C35.2126 9.26645 35.3304 9.08939 35.4039 8.89233C35.4775 8.69526 35.5049 8.48357 35.484 8.27393C35.4631 8.06429 35.3945 7.86243 35.2836 7.68426C35.1726 7.50608 35.0224 7.35646 34.8447 7.24718V7.24851Z" fill="#00DED2"/>
<path d="M34.8446 25.4067C34.6492 25.5268 34.4265 25.5938 34.198 25.6013C33.9696 25.6087 33.7431 25.5564 33.5404 25.4493C33.4861 25.4207 33.4339 25.3882 33.3841 25.3521L33.3762 25.3442C33.2626 25.2608 33.1563 25.1677 33.0584 25.0659C32.2782 24.2789 31.0213 22.9767 30.2451 22.1872C30.1894 22.1297 30.1307 22.0755 30.0691 22.0247L30.0481 22.0087C29.9898 22.0474 29.9357 22.092 29.8865 22.1419C29.7105 22.319 29.5371 22.4974 29.3611 22.6745C29.2193 22.8196 29.0788 22.9661 28.9356 23.1099L28.4628 23.5892C27.9729 24.0859 27.483 24.5839 26.9878 25.0752L26.9694 25.0898C26.8444 25.2481 26.6856 25.3757 26.505 25.4629C26.3244 25.55 26.1266 25.5946 25.9266 25.5931H25.9121C25.7046 25.5899 25.5006 25.5384 25.3158 25.4427C25.2616 25.414 25.2093 25.3816 25.1595 25.3455L25.1503 25.3375C25.0374 25.2538 24.9315 25.1607 24.8338 25.0592C24.4739 24.697 24.0129 24.2244 23.5454 23.7437L21.9693 22.1459C21.9203 22.0954 21.868 22.0483 21.813 22.0047C21.7579 22.0439 21.7069 22.0885 21.6606 22.1379C21.4846 22.315 21.3112 22.4934 21.1352 22.6705L20.7097 23.1059L20.2369 23.5852C19.747 24.0819 19.2571 24.5799 18.7606 25.0712C18.534 25.315 18.2417 25.4859 17.92 25.5625C17.8951 25.5625 17.8688 25.5625 17.8438 25.5718C17.7966 25.5718 17.7506 25.5878 17.7046 25.5891H17.6928H17.6692C17.6534 25.5891 17.6376 25.5891 17.6206 25.5891H17.5575H17.5483H17.5155C17.4793 25.5854 17.4433 25.5797 17.4078 25.5718C17.3828 25.5718 17.3592 25.5559 17.3342 25.5492C17.0911 25.4714 16.8705 25.3343 16.692 25.1498C16.4477 24.9061 16.1666 24.6172 15.8711 24.3202L14.0533 22.4828L13.6291 22.0527L13.5779 22.0114L13.5582 22.0247C13.5225 22.0497 13.4887 22.0773 13.457 22.1073C13.3993 22.1619 13.3428 22.2204 13.2876 22.2777L12.3853 23.1951C11.7641 23.8276 11.1428 24.4614 10.5163 25.0885C10.1604 25.4467 9.78211 25.6131 9.39729 25.6011C9.37496 25.6011 9.35394 25.6011 9.33293 25.6011H9.32505H9.29221C9.25602 25.5974 9.22006 25.5916 9.18451 25.5838C9.15956 25.5838 9.13592 25.5678 9.11096 25.5612C8.86754 25.4832 8.64661 25.346 8.46739 25.1617C8.22441 24.9181 7.94202 24.6291 7.64782 24.3322L5.83137 22.4947L4.97634 21.6279C4.89718 21.5497 4.82387 21.4655 4.757 21.3763L4.44047 21.0381C4.19159 20.8045 4.03944 20.4839 4.01478 20.141C3.99011 19.7981 4.09477 19.4585 4.3076 19.1909C4.52043 18.9232 4.82556 18.7474 5.16132 18.699C5.49707 18.6507 5.83843 18.7333 6.11638 18.9303L6.12426 18.9383C6.23789 19.0216 6.34423 19.1147 6.44211 19.2166C7.22359 20.0048 8.4779 21.3044 9.25544 22.1033C9.31107 22.1607 9.36983 22.2149 9.43143 22.2657L9.45245 22.2817C9.51068 22.2431 9.56482 22.1985 9.614 22.1485C9.78999 21.9715 9.96336 21.793 10.1394 21.6159C10.2812 21.4721 10.4217 21.3257 10.5649 21.1819L11.0377 20.7025C11.5276 20.2059 12.0175 19.7079 12.5127 19.2166L12.5311 19.2019C12.6561 19.0436 12.8149 18.9161 12.9955 18.8289C13.1761 18.7417 13.3739 18.6972 13.5739 18.6986H13.5884C13.7959 18.7019 13.9999 18.7534 14.1847 18.8491C14.239 18.8777 14.2912 18.9102 14.341 18.9463L14.3488 18.9543C14.4625 19.0376 14.5688 19.1307 14.6667 19.2326C15.0253 19.5947 15.4863 20.0661 15.9538 20.5467L17.5299 22.1446C17.5789 22.195 17.6311 22.2422 17.6862 22.2857C17.741 22.2462 17.792 22.2016 17.8386 22.1525C18.0146 21.9755 18.188 21.797 18.3639 21.6199C18.5058 21.4761 18.6463 21.3297 18.7895 21.1859L19.2623 20.7065C19.7522 20.2099 20.2421 19.7119 20.7373 19.2206C20.9645 18.9769 21.2572 18.8061 21.5792 18.7293C21.6041 18.7293 21.6304 18.7292 21.6554 18.7199C21.7014 18.7115 21.7479 18.7057 21.7946 18.7026H21.8025H21.8274H21.8747C21.897 18.7026 21.9194 18.7026 21.9391 18.7026H21.9482H21.9811C22.0172 18.7065 22.0532 18.7123 22.0888 18.7199C22.1137 18.7199 22.1374 18.7359 22.1623 18.7426C22.4054 18.8206 22.6258 18.9578 22.8046 19.142C23.0476 19.3857 23.33 19.6746 23.6228 19.9702C24.2296 20.5827 24.836 21.1956 25.4419 21.809L25.8662 22.2391L25.9161 22.2804L25.9371 22.267C25.9727 22.242 26.0065 22.2144 26.0382 22.1845C26.096 22.1299 26.1525 22.0713 26.2076 22.0141L27.11 21.0967C27.7312 20.4642 28.3524 19.8304 28.9789 19.2033C29.3336 18.8451 29.7131 18.6787 30.098 18.6906H30.161H30.1702H30.203C30.2392 18.6943 30.2752 18.7001 30.3107 18.7079C30.3357 18.7079 30.3593 18.7239 30.3843 18.7306C30.6274 18.8083 30.848 18.9455 31.0266 19.13C31.2708 19.3737 31.5519 19.6626 31.8448 19.9582C32.4516 20.5707 33.058 21.1837 33.6639 21.797L34.5189 22.6638C34.5977 22.7425 34.671 22.8265 34.7383 22.9155L35.0587 23.2404C35.2113 23.3835 35.329 23.5605 35.4026 23.7576C35.4761 23.9547 35.5036 24.1663 35.4827 24.376C35.4618 24.5856 35.3932 24.7875 35.2822 24.9657C35.1713 25.1438 35.021 25.2935 34.8433 25.4027L34.8446 25.4067Z" fill="#00DED2"/>
<path d="M34.1869 17.6891C34.9289 17.6891 35.5305 17.0793 35.5305 16.327C35.5305 15.5747 34.9289 14.9648 34.1869 14.9648C33.4448 14.9648 32.8433 15.5747 32.8433 16.327C32.8433 17.0793 33.4448 17.6891 34.1869 17.6891Z" fill="#00DED2"/>
<path d="M25.9383 17.6891C26.6804 17.6891 27.282 17.0793 27.282 16.327C27.282 15.5747 26.6804 14.9648 25.9383 14.9648C25.1963 14.9648 24.5947 15.5747 24.5947 16.327C24.5947 17.0793 25.1963 17.6891 25.9383 17.6891Z" fill="#00DED2"/>
<path d="M17.6903 17.6891C18.4324 17.6891 19.0339 17.0793 19.0339 16.327C19.0339 15.5747 18.4324 14.9648 17.6903 14.9648C16.9482 14.9648 16.3467 15.5747 16.3467 16.327C16.3467 17.0793 16.9482 17.6891 17.6903 17.6891Z" fill="#00DED2"/>
<path d="M9.43151 17.6891C10.1736 17.6891 10.7751 17.0793 10.7751 16.327C10.7751 15.5747 10.1736 14.9648 9.43151 14.9648C8.68945 14.9648 8.08789 15.5747 8.08789 16.327C8.08789 17.0793 8.68945 17.6891 9.43151 17.6891Z" fill="#00DED2"/>
<path d="M70.3176 17.613C71.1516 17.2615 72.2877 17.0804 73.6773 17.0804C74.452 17.0773 75.2259 17.0306 75.9955 16.9406C78.0549 16.705 79.4274 16.0086 80.1984 14.8196C80.6237 14.1335 80.8612 13.345 80.8864 12.5351C80.9115 11.7252 80.7235 10.9231 80.3416 10.2112C79.9773 9.53321 79.4702 8.94493 78.8561 8.48826C78.2047 8.01246 77.4761 7.65601 76.7034 7.43504C74.5153 6.78127 72.1656 6.981 70.2677 7.98495C68.2726 9.03551 66.753 11.0714 66.0989 13.5679C65.324 16.5292 65.9203 20.0271 67.6199 22.477C68.9911 24.453 71.3119 25.5874 73.9899 25.5874C75.2429 25.605 76.4827 25.3264 77.611 24.7739C78.4544 24.3527 79.2228 23.792 79.8845 23.1148C79.9899 23.0056 80.0749 22.878 80.1354 22.738C80.2526 22.5177 80.3113 22.2704 80.3058 22.0202C80.3003 21.77 80.2308 21.5255 80.1041 21.3107C79.9774 21.0959 79.7978 20.9182 79.5829 20.7949C79.3681 20.6717 79.1253 20.6071 78.8784 20.6076C78.5911 20.607 78.3106 20.6958 78.0746 20.8619C78.0418 20.8854 78.0106 20.9112 77.9814 20.9391L77.9249 20.9871C77.901 21.0062 77.8782 21.0266 77.8566 21.0483L77.829 21.0723C77.5232 21.4035 77.1808 21.6979 76.8085 21.9498C76.4024 22.2245 75.966 22.4502 75.5082 22.6222C74.4613 22.9935 73.3173 22.9694 72.2864 22.5543C71.7245 22.337 71.2001 22.031 70.7326 21.6475C70.2943 21.2913 69.9209 20.8601 69.6294 20.3733C69.3766 19.9574 69.2404 19.4796 69.2354 18.9912C69.234 18.3747 69.5887 17.922 70.3176 17.613ZM74.158 14.227C73.6931 14.227 73.1546 14.2483 72.5557 14.2923C71.9558 14.3358 71.3601 14.4248 70.7734 14.5586C70.195 14.6896 69.6323 14.8833 69.0948 15.1365C68.9455 15.2068 68.8 15.285 68.6588 15.3708C68.7034 15.1937 68.7468 14.9327 68.8006 14.5719C68.8282 14.3788 68.8531 14.2124 68.8728 14.1392C69.0024 13.6541 69.1899 13.1868 69.431 12.7477C69.8955 11.8826 70.5711 11.1528 71.3933 10.628C72.1708 10.142 73.2859 9.82908 74.3918 9.82908C75.6868 9.82908 76.9687 10.2605 77.6754 11.3523C78.0247 11.8929 78.1547 12.777 77.7042 13.3496C77.2222 13.9621 76.27 14.1099 75.5949 14.1685C75.1168 14.2057 74.6335 14.227 74.158 14.227Z" fill="#00DED2"/>
<path d="M63.5691 7.13864C63.2263 7.01691 62.8499 7.03816 62.5225 7.19771C62.1952 7.35725 61.9438 7.64205 61.8235 7.98947L57.681 19.8651L53.9128 8.06803C53.8885 7.99867 53.8595 7.93105 53.8262 7.86564L53.8157 7.84434C53.8012 7.81638 53.7854 7.78975 53.7671 7.76046C53.6076 7.47267 53.3511 7.25284 53.0447 7.14131C52.8747 7.08013 52.6945 7.05355 52.5144 7.06309C52.3343 7.07262 52.1578 7.11808 51.9951 7.19687C51.8323 7.27566 51.6865 7.38622 51.5659 7.52223C51.4454 7.65824 51.3525 7.81702 51.2926 7.98947L47.1514 19.8625L43.357 8.02276C43.2441 7.67227 42.9985 7.38159 42.6742 7.21466C42.35 7.04774 41.9736 7.01824 41.6278 7.13265C41.2821 7.24707 40.9954 7.49603 40.8307 7.82477C40.6661 8.1535 40.637 8.53509 40.7498 8.88558L45.7894 24.6333C45.8765 24.9099 46.0471 25.1519 46.2771 25.3251C46.507 25.4983 46.7848 25.5939 47.0713 25.5986H47.0936C47.3774 25.5975 47.6539 25.5072 47.8851 25.3403C48.1163 25.1735 48.2908 24.9381 48.3847 24.6665L52.5364 12.7749L56.3243 24.6253C56.4113 24.9017 56.5817 25.1436 56.8114 25.3167C57.0411 25.4899 57.3186 25.5857 57.6048 25.5906H57.6272C57.9111 25.5894 58.1877 25.4991 58.4191 25.3323C58.6505 25.1654 58.8253 24.9301 58.9196 24.6585L64.407 8.92153C64.5287 8.57243 64.5088 8.18867 64.3517 7.85443C64.1946 7.52019 63.9131 7.26277 63.5691 7.13864Z" fill="#00DED2"/>
<path d="M103.354 7.05664C102.98 7.05875 102.622 7.211 102.358 7.48003C102.095 7.74905 101.948 8.11294 101.948 8.492V24.1585C101.948 24.5363 102.096 24.8987 102.36 25.1659C102.623 25.4331 102.981 25.5832 103.354 25.5832C103.726 25.5832 104.084 25.4331 104.347 25.1659C104.611 24.8987 104.759 24.5363 104.759 24.1585V8.492C104.76 8.11294 104.612 7.74905 104.349 7.48003C104.085 7.211 103.727 7.05875 103.354 7.05664Z" fill="#00DED2"/>
<path d="M91.0642 7.05699C87.0715 7.19015 83.8234 10.7146 83.8234 14.9129V24.1348C83.8176 24.3292 83.8504 24.5228 83.9197 24.7041C83.9891 24.8854 84.0936 25.0508 84.2272 25.1903C84.3608 25.3299 84.5207 25.4409 84.6973 25.5167C84.874 25.5924 85.0639 25.6315 85.2557 25.6315C85.4475 25.6315 85.6374 25.5924 85.814 25.5167C85.9907 25.4409 86.1506 25.3299 86.2841 25.1903C86.4177 25.0508 86.5223 24.8854 86.5916 24.7041C86.661 24.5228 86.6938 24.3292 86.688 24.1348V14.8143C86.688 12.2339 88.6725 10.0449 91.1115 9.9357C91.7387 9.90475 92.3655 10.0048 92.953 10.2298C93.5404 10.4547 94.076 10.7997 94.5264 11.2432C94.9814 11.6851 95.343 12.2163 95.5891 12.8043C95.8353 13.3924 95.9608 14.0251 95.958 14.6639V24.1348C95.958 24.5198 96.1088 24.8889 96.3773 25.1611C96.6458 25.4333 97.0099 25.5862 97.3896 25.5862C97.7693 25.5862 98.1334 25.4333 98.4019 25.1611C98.6704 24.8889 98.8212 24.5198 98.8212 24.1348V14.7131C98.8255 13.6869 98.6252 12.6704 98.2325 11.7245C97.8398 10.7787 97.2628 9.92297 96.5359 9.2087C95.8166 8.49103 94.9602 7.92997 94.0193 7.55996C93.0784 7.18995 92.0728 7.01879 91.0642 7.05699Z" fill="#00DED2"/>
</g>
</svg>
