<svg width="249" height="248" viewBox="0 0 249 248" fill="none" xmlns="http://www.w3.org/2000/svg">
<path d="M47.1443 112.512C47.1443 112.512 81.4843 111.137 88.9052 54.6896C95.4952 4.55871 153.401 27.3764 170.14 47.3598C191.823 73.2465 180.264 117.777 208.314 123.403C236.364 129.028 218.047 191.574 175.469 185.587C122.503 178.14 135.318 209.09 119.418 222.19C108.007 231.592 61.2169 222.542 59.6574 188.412C58.3451 159.692 46.2306 159.783 37.6437 156.527C25.2595 151.83 17.456 117.816 47.1443 112.512Z" fill="#F9F9F9"/>
<path d="M184.418 103.026C187.627 93.1278 198.28 87.7235 208.138 90.9188C217.997 94.1141 223.442 104.78 220.246 114.639C217.05 124.497 206.425 129.954 196.526 126.746C186.627 123.538 181.223 112.884 184.418 103.026Z" fill="#E2E6ED"/>
<path d="M55.7357 188.973C56.6738 187.295 58.0885 185.933 59.8008 185.059C62.0974 183.89 64.764 183.68 67.2155 184.474C69.667 185.269 71.7032 187.003 72.8773 189.298C73.7513 191.01 74.098 192.943 73.8734 194.852C73.6488 196.761 72.8631 198.561 71.6157 200.024C70.3682 201.487 68.715 202.547 66.8651 203.07C65.0152 203.593 63.0517 203.556 61.2229 202.963C59.3941 202.371 57.7821 201.249 56.5909 199.74C55.3996 198.231 54.6825 196.403 54.5303 194.486C54.3781 192.57 54.7975 190.651 55.7357 188.973Z" fill="#E2E6ED"/>
<mask id="mask0_4996_1201" style="mask-type:alpha" maskUnits="userSpaceOnUse" x="60" y="60" width="129" height="129">
<rect x="60" y="60" width="129" height="129" fill="#D9D9D9"/>
</mask>
<g mask="url(#mask0_4996_1201)">
<path d="M87.2677 171.531C84.5534 171.531 82.2555 170.591 80.3743 168.709C78.493 166.828 77.5524 164.53 77.5524 161.815V118.876C75.3881 117.099 73.7635 114.792 72.6786 111.956C71.5929 109.121 71.5705 106.06 72.6114 102.773L78.0483 85.0139C78.7649 82.7537 79.981 80.9311 81.6965 79.5462C83.413 78.1612 85.4631 77.4688 87.8469 77.4688H161.216C163.6 77.4688 165.637 78.1303 167.324 79.4535C169.013 80.7766 170.243 82.5961 171.014 84.9118L176.555 102.773C177.596 106.06 177.573 109.11 176.487 111.925C175.403 114.741 173.778 117.092 171.614 118.98V161.815C171.614 164.53 170.673 166.828 168.792 168.709C166.91 170.591 164.613 171.531 161.898 171.531H87.2677ZM136.409 115.094C139.344 115.094 141.551 114.196 143.029 112.401C144.507 110.606 145.112 108.678 144.843 106.617L141.577 85.5312H128.614V106.763C128.614 109.023 129.379 110.977 130.909 112.624C132.439 114.27 134.272 115.094 136.409 115.094ZM112.221 115.094C114.695 115.094 116.701 114.27 118.241 112.624C119.782 110.977 120.552 109.023 120.552 106.763V85.5312H107.589L104.324 106.824C104.034 108.733 104.633 110.589 106.122 112.391C107.611 114.193 109.644 115.094 112.221 115.094ZM88.3024 115.094C90.2938 115.094 92.0062 114.399 93.4396 113.011C94.8729 111.622 95.7584 109.877 96.0962 107.776L99.258 85.5312H87.8469C87.261 85.5312 86.7961 85.6603 86.4521 85.9183C86.1072 86.1771 85.8487 86.565 85.6767 87.0819L80.5073 104.571C79.7978 106.879 80.1324 109.21 81.5111 111.564C82.8889 113.917 85.1527 115.094 88.3024 115.094ZM160.865 115.094C163.773 115.094 165.998 113.952 167.542 111.667C169.086 109.383 169.458 107.017 168.659 104.571L163.221 86.9785C163.049 86.4616 162.791 86.0911 162.447 85.8672C162.102 85.6432 161.636 85.5312 161.05 85.5312H149.908L153.07 107.776C153.408 109.877 154.293 111.622 155.726 113.011C157.16 114.399 158.873 115.094 160.865 115.094Z" fill="#E2E6ED"/>
</g>
<path d="M195.469 116.494C195.343 116.494 195.226 116.445 195.137 116.356C194.997 116.217 194.96 116.003 195.045 115.824L196.863 112.007C196.255 110.944 195.935 109.739 195.936 108.512C195.943 104.649 199.09 101.506 202.953 101.506H202.974C204.287 101.506 205.569 101.873 206.684 102.565C208.275 103.554 209.387 105.107 209.813 106.937C210.24 108.766 209.93 110.65 208.941 112.241C207.95 113.835 206.398 114.947 204.571 115.374C204.041 115.497 203.5 115.56 202.962 115.56C201.748 115.56 200.55 115.239 199.488 114.631L195.671 116.449C195.607 116.478 195.538 116.494 195.469 116.494ZM202.953 102.443C199.606 102.443 196.879 105.166 196.874 108.513C196.872 109.653 197.19 110.767 197.792 111.735C197.877 111.871 197.886 112.039 197.817 112.184L196.459 115.036L199.311 113.677C199.373 113.647 199.442 113.632 199.512 113.632C199.599 113.632 199.685 113.656 199.759 113.703C200.728 114.305 201.835 114.623 202.962 114.623C203.428 114.623 203.897 114.569 204.356 114.461C205.94 114.091 207.285 113.128 208.145 111.746C209.918 108.895 209.04 105.133 206.189 103.361C205.223 102.76 204.111 102.443 202.974 102.443C202.971 102.443 202.953 102.443 202.953 102.443Z" fill="white"/>
<path d="M64.4998 198.5C63.9087 198.501 63.3231 198.386 62.777 198.16C62.2309 197.933 61.735 197.601 61.3182 197.182C60.899 196.765 60.5667 196.269 60.3404 195.723C60.1141 195.177 59.9984 194.591 60 194C60 192.798 60.468 191.669 61.3178 190.818C62.168 189.969 63.2979 189.5 64.4998 189.5C65.7017 189.5 66.8317 189.968 67.6818 190.818C68.101 191.235 68.4334 191.731 68.6597 192.277C68.8859 192.823 69.0016 193.409 69 194V194.844C68.9996 195.217 68.8513 195.574 68.5876 195.838C68.324 196.101 67.9665 196.25 67.5937 196.25C67.3126 196.249 67.0384 196.164 66.8059 196.006C66.5735 195.848 66.3934 195.624 66.2886 195.363C66.0786 195.638 65.808 195.862 65.4978 196.016C65.1876 196.169 64.8461 196.25 64.4998 196.25C63.2593 196.25 62.2497 195.241 62.2497 194C62.2497 192.759 63.2593 191.75 64.4998 191.75C65.7404 191.75 66.7499 192.759 66.7499 194V194.844C66.7499 195.309 67.1283 195.688 67.5937 195.688C68.0591 195.688 68.4375 195.309 68.4375 194.844V194C68.4375 192.948 68.0279 191.96 67.2843 191.216C66.9194 190.849 66.4855 190.558 66.0075 190.36C65.5296 190.162 65.0171 190.061 64.4998 190.063C63.9826 190.061 63.4701 190.162 62.9923 190.36C62.5144 190.558 62.0805 190.849 61.7157 191.216C61.349 191.581 61.0582 192.015 60.8603 192.492C60.6623 192.97 60.5611 193.483 60.5625 194C60.5611 194.517 60.6623 195.03 60.8602 195.508C61.0582 195.985 61.3489 196.419 61.7157 196.784C62.0804 197.151 62.5143 197.441 62.9921 197.639C63.4699 197.837 63.9823 197.938 64.4994 197.937C65.3458 197.937 66.1848 197.657 66.8617 197.149C66.8912 197.127 66.9248 197.111 66.9605 197.102C66.9963 197.093 67.0335 197.091 67.0701 197.096C67.1066 197.101 67.1418 197.113 67.1735 197.132C67.2053 197.151 67.2331 197.176 67.2552 197.205C67.2774 197.235 67.2935 197.269 67.3027 197.304C67.3119 197.34 67.3139 197.377 67.3087 197.414C67.3035 197.45 67.2912 197.486 67.2724 197.517C67.2536 197.549 67.2287 197.577 67.1992 197.599C66.4199 198.182 65.4731 198.498 64.4998 198.5ZM64.4998 192.312C63.5694 192.312 62.8122 193.07 62.8122 194C62.8122 194.93 63.5694 195.688 64.4998 195.688C65.4302 195.688 66.1874 194.93 66.1874 194C66.1874 193.07 65.4302 192.312 64.4998 192.312Z" fill="white"/>
</svg>
